<svg width="120" height="120" viewBox="0 0 120 120" fill="none" xmlns="http://www.w3.org/2000/svg">
<path d="M41.8449 71.1464L87.2914 104.132C76.9823 110.014 62.009 109.506 52.5056 102.608L20.2223 79.1764C17.1673 76.9589 17.1673 73.3639 20.2223 71.1464C26.1932 66.8126 35.874 66.8126 41.8449 71.1464Z" fill="#0D0D0D" stroke="#0D0D0D" stroke-width="4"/>
<path d="M68.3094 17.9985L100.593 41.4305C103.648 43.6479 103.648 47.243 100.593 49.4604C94.6218 53.7942 84.9411 53.7942 78.97 49.4604L33.5237 16.4745C43.8328 10.5926 58.8059 11.1006 68.3094 17.9985Z" fill="#0D0D0D" stroke="#0D0D0D" stroke-width="4"/>
<path d="M94.2139 96.7306L28.2168 48.8286C18.7135 41.9308 18.0135 31.0629 26.1171 23.5803L92.1142 71.4825C101.617 78.3801 102.317 89.2481 94.2139 96.7306Z" fill="#151515" stroke="#151515" stroke-width="4"/>
</svg>
