<svg width="812" height="318" viewBox="0 0 812 318" fill="none" xmlns="http://www.w3.org/2000/svg">
<path d="M36.139 160.068V275.104L10.381 280.113C10.063 280.166 9.7185 280.219 9.3475 280.272C9.0295 280.378 8.738 280.431 8.473 280.431C8.155 280.431 7.89 280.325 7.678 280.113C7.466 279.954 7.36 279.742 7.36 279.477V170.403C7.36 169.979 7.254 169.661 7.042 169.449C6.83 169.237 6.4855 169.131 6.0085 169.131H2.908C2.537 169.131 2.272 169.078 2.113 168.972C2.007 168.813 1.954 168.627 1.954 168.415C1.954 168.203 2.0335 168.044 2.1925 167.938C2.3515 167.832 2.537 167.753 2.749 167.7L32.8795 159.352C33.5155 159.193 33.9395 159.087 34.1515 159.034C34.4165 158.981 34.708 158.955 35.026 158.955C35.397 158.955 35.662 159.061 35.821 159.273C36.033 159.485 36.139 159.75 36.139 160.068ZM34.39 219.852L33.118 218.421C36.139 214.287 39.372 211.213 42.817 209.199C46.315 207.185 50.396 206.178 55.06 206.178C61.208 206.178 66.5345 207.556 71.0395 210.312C75.5975 213.015 79.0955 216.963 81.5335 222.157C84.0245 227.298 85.27 233.552 85.27 240.919C85.27 248.869 83.786 255.839 80.818 261.828C77.903 267.764 73.8485 272.375 68.6545 275.661C63.4605 278.947 57.498 280.59 50.767 280.59C45.891 280.59 42.075 279.875 39.319 278.443C36.563 276.959 34.337 274.601 32.641 271.368L34.708 270.414C35.556 272.64 36.669 274.283 38.047 275.343C39.478 276.403 41.227 276.933 43.294 276.933C45.838 276.933 48.064 276.032 49.972 274.23C51.88 272.375 53.364 269.009 54.424 264.133C55.484 259.257 56.014 252.314 56.014 243.304C56.014 235.354 55.59 229.1 54.742 224.542C53.894 219.931 52.7015 216.645 51.1645 214.684C49.6275 212.723 47.799 211.743 45.679 211.743C43.559 211.743 41.5185 212.405 39.5575 213.73C37.6495 215.055 35.927 217.096 34.39 219.852ZM139.085 253.878L125.173 290.369L95.6783 222.714C94.0883 219.004 92.4983 215.93 90.9083 213.492C89.3713 211.054 87.7283 209.649 85.9793 209.278C85.2373 209.119 84.7868 208.987 84.6278 208.881C84.4688 208.722 84.3893 208.563 84.3893 208.404C84.3893 208.139 84.4688 207.98 84.6278 207.927C84.7868 207.821 84.9723 207.768 85.1843 207.768H128.909C129.174 207.768 129.36 207.821 129.466 207.927C129.625 207.98 129.704 208.139 129.704 208.404C129.704 208.616 129.625 208.775 129.466 208.881C129.36 208.934 129.121 209.013 128.75 209.119L124.934 209.835C123.609 210.047 122.788 210.789 122.47 212.061C122.205 213.333 122.576 215.135 123.583 217.467L139.085 253.878ZM125.65 287.348L129.784 276.377L131.135 272.799L151.249 218.341C152.203 215.691 152.362 213.81 151.726 212.697C151.09 211.584 149.818 210.762 147.91 210.232L144.094 209.119C143.723 209.013 143.458 208.907 143.299 208.801C143.193 208.695 143.14 208.563 143.14 208.404C143.14 208.139 143.219 207.98 143.378 207.927C143.537 207.821 143.723 207.768 143.935 207.768H163.333C163.598 207.768 163.783 207.821 163.889 207.927C164.048 207.98 164.128 208.139 164.128 208.404C164.128 208.563 164.048 208.695 163.889 208.801C163.783 208.907 163.545 209.013 163.174 209.119C159.941 209.808 157.609 210.815 156.178 212.14C154.8 213.412 153.581 215.506 152.521 218.421L126.365 289.017C123.874 295.801 121.834 301.313 120.244 305.553C118.654 309.846 116.772 312.973 114.599 314.934C112.426 316.948 109.114 317.955 104.662 317.955C99.4148 317.955 95.1748 316.312 91.9418 313.026C88.7088 309.74 87.0923 305.845 87.0923 301.34C87.0923 297.577 88.0728 294.688 90.0338 292.674C91.9948 290.66 94.3798 289.653 97.1888 289.653C99.6798 289.653 101.747 290.395 103.39 291.879C105.086 293.416 106.49 295.722 107.603 298.796L109.114 302.93C109.803 304.732 110.598 306.481 111.499 308.177C112.4 309.873 113.566 310.721 114.997 310.721C116.004 310.721 116.984 309.74 117.938 307.779C118.892 305.818 119.979 303.062 121.198 299.511C122.417 296.013 123.901 291.959 125.65 287.348ZM260.794 239.568C260.794 240.098 260.608 240.548 260.237 240.919C259.919 241.29 259.363 241.476 258.568 241.476H208.801V239.568H230.902C231.856 239.568 232.333 238.985 232.333 237.819C232.333 227.166 231.352 219.534 229.391 214.923C227.483 210.259 225.496 207.927 223.429 207.927C221.998 207.927 220.673 208.695 219.454 210.232C218.235 211.716 217.228 214.313 216.433 218.023C215.691 221.733 215.32 226.848 215.32 233.367C215.32 244.338 217.519 252.341 221.918 257.376C226.317 262.358 232.174 264.849 239.488 264.849C245.371 264.849 250.141 263.391 253.798 260.476C257.508 257.508 259.363 253.56 259.363 248.631C259.363 248.366 259.416 248.207 259.522 248.154C259.681 248.048 259.787 247.995 259.84 247.995C259.999 247.995 260.131 248.048 260.237 248.154C260.396 248.26 260.476 248.472 260.476 248.79C260.476 254.832 258.939 260.264 255.865 265.087C252.844 269.857 248.71 273.647 243.463 276.456C238.216 279.212 232.28 280.59 225.655 280.59C218.447 280.59 212.06 279.053 206.495 275.979C200.93 272.905 196.558 268.638 193.378 263.179C190.198 257.72 188.608 251.44 188.608 244.338C188.608 236.388 190.171 229.577 193.298 223.906C196.425 218.182 200.851 213.81 206.575 210.789C212.352 207.715 219.136 206.178 226.927 206.178C233.87 206.178 239.859 207.635 244.894 210.55C249.982 213.465 253.904 217.44 256.66 222.475C259.416 227.51 260.794 233.208 260.794 239.568ZM290.374 244.497L291.725 244.894L278.369 266.359C276.514 269.38 275.799 271.553 276.223 272.878C276.7 274.15 278.025 275.21 280.198 276.058L283.298 277.251C283.722 277.41 284.04 277.542 284.252 277.648C284.464 277.701 284.57 277.86 284.57 278.125C284.57 278.337 284.464 278.523 284.252 278.682C284.093 278.788 283.881 278.841 283.616 278.841H263.9C263.635 278.841 263.397 278.788 263.185 278.682C263.026 278.576 262.946 278.417 262.946 278.205C262.946 278.046 263.026 277.887 263.185 277.728C263.397 277.569 263.688 277.463 264.059 277.41C266.285 277.039 268.034 276.403 269.306 275.502C270.631 274.601 271.824 273.355 272.884 271.765C273.997 270.175 275.295 268.214 276.779 265.882L290.374 244.497ZM300.947 215.082L315.814 239.488L316.132 239.965L333.94 268.903C335.53 271.5 336.908 273.488 338.074 274.866C339.293 276.244 340.353 276.986 341.254 277.092C341.572 277.145 341.784 277.251 341.89 277.41C341.996 277.569 342.049 277.781 342.049 278.046C342.049 278.364 341.943 278.602 341.731 278.761C341.519 278.92 341.174 279 340.697 279H295.382C294.852 279 294.428 278.92 294.11 278.761C293.845 278.549 293.713 278.258 293.713 277.887C293.713 277.675 293.792 277.489 293.951 277.33C294.11 277.118 294.455 276.986 294.985 276.933L300.311 276.377C302.166 276.164 303.332 275.422 303.809 274.15C304.339 272.825 303.783 270.811 302.14 268.108L289.658 247.279L289.42 246.802L269.545 213.969C268.856 212.75 268.061 211.822 267.16 211.186C266.259 210.55 265.464 210.206 264.775 210.153C264.245 210.153 263.821 210.02 263.503 209.755C263.185 209.437 263.026 209.119 263.026 208.801C263.026 208.377 263.185 208.112 263.503 208.006C263.821 207.847 264.139 207.768 264.457 207.768H307.148C307.466 207.768 307.705 207.847 307.864 208.006C308.076 208.112 308.182 208.298 308.182 208.563C308.182 208.722 308.129 208.854 308.023 208.96C307.917 209.066 307.652 209.172 307.228 209.278L303.173 210.153C302.007 210.365 301.133 210.921 300.55 211.822C300.02 212.67 300.152 213.757 300.947 215.082ZM315.178 242.112L314.224 241.158L324.797 222.078C326.705 218.633 327.315 215.718 326.626 213.333C325.937 210.948 324.585 209.649 322.571 209.437L320.504 209.199C320.186 209.146 319.948 209.066 319.789 208.96C319.683 208.801 319.63 208.642 319.63 208.483C319.63 208.218 319.709 208.033 319.868 207.927C320.08 207.821 320.372 207.768 320.743 207.768H339.743C340.061 207.768 340.3 207.847 340.459 208.006C340.671 208.112 340.777 208.271 340.777 208.483C340.777 208.642 340.697 208.775 340.538 208.881C340.379 208.987 340.088 209.093 339.664 209.199C336.113 209.888 333.542 211.239 331.952 213.253C330.362 215.267 328.428 218.315 326.149 222.396L315.178 242.112ZM385.228 271.606V270.493L383.797 271.845V213.81C383.797 211.902 383.294 210.391 382.287 209.278C381.333 208.165 380.14 207.609 378.709 207.609C376.907 207.609 375.476 208.165 374.416 209.278C373.356 210.391 372.826 211.902 372.826 213.81V222.237C372.826 225.788 371.475 228.915 368.772 231.618C366.069 234.268 362.544 235.593 358.198 235.593C355.283 235.593 352.872 234.771 350.964 233.128C349.109 231.485 348.181 228.968 348.181 225.576C348.181 222.661 349.453 219.719 351.997 216.751C354.541 213.73 358.331 211.213 363.366 209.199C368.454 207.185 374.761 206.178 382.287 206.178C392.463 206.178 400.068 208.139 405.103 212.061C410.191 215.983 412.735 221.654 412.735 229.074V268.347C412.735 269.619 413 270.573 413.53 271.209C414.113 271.845 414.802 272.163 415.597 272.163C416.392 272.163 417.161 271.871 417.903 271.288C418.698 270.652 419.201 269.513 419.413 267.87C419.466 267.605 419.519 267.446 419.572 267.393C419.678 267.287 419.784 267.234 419.89 267.234C420.049 267.234 420.155 267.287 420.208 267.393C420.314 267.446 420.367 267.605 420.367 267.87C420.367 269.089 419.731 270.705 418.459 272.719C417.24 274.733 415.173 276.562 412.258 278.205C409.396 279.795 405.474 280.59 400.492 280.59C394.98 280.59 391.058 279.716 388.726 277.966C386.394 276.164 385.228 274.044 385.228 271.606ZM343.729 263.1C343.729 256.687 346.379 251.678 351.679 248.074C357.032 244.417 365.989 242.589 378.55 242.589C380.935 242.589 382.79 242.854 384.115 243.384C385.493 243.861 386.765 244.55 387.931 245.451L387.136 246.087C385.864 245.345 384.672 244.841 383.559 244.576C382.446 244.311 381.147 244.179 379.663 244.179C377.331 244.179 375.476 245.398 374.098 247.836C372.72 250.274 372.031 254.037 372.031 259.125C372.031 263.895 372.747 267.34 374.178 269.46C375.609 271.58 377.437 272.64 379.663 272.64C380.882 272.64 382.128 272.216 383.4 271.368C384.672 270.467 385.679 269.354 386.421 268.029L387.534 268.665C385.414 272.534 382.287 275.502 378.153 277.569C374.072 279.583 369.646 280.59 364.876 280.59C358.781 280.59 353.72 278.947 349.692 275.661C345.717 272.375 343.729 268.188 343.729 263.1ZM458.209 207.132V274.071C458.209 274.76 458.395 275.396 458.766 275.979C459.137 276.562 459.64 276.933 460.276 277.092L463.297 277.728C463.827 277.834 464.092 278.046 464.092 278.364C464.092 278.788 463.774 279 463.138 279H424.501C424.183 279 423.945 278.947 423.786 278.841C423.627 278.682 423.547 278.523 423.547 278.364C423.547 278.205 423.653 278.046 423.865 277.887C424.077 277.728 424.342 277.622 424.66 277.569L427.522 276.933C428.264 276.774 428.768 276.482 429.033 276.058C429.298 275.581 429.43 275.025 429.43 274.389V217.626C429.43 217.149 429.324 216.778 429.112 216.513C428.953 216.195 428.635 216.036 428.158 216.036H424.66C424.448 216.036 424.263 215.983 424.104 215.877C423.945 215.718 423.865 215.559 423.865 215.4C423.865 215.241 423.945 215.082 424.104 214.923C424.263 214.764 424.501 214.658 424.819 214.605L455.029 206.178C455.506 206.019 455.877 205.939 456.142 205.939C456.46 205.886 456.778 205.86 457.096 205.86C457.52 205.86 457.812 205.992 457.971 206.257C458.13 206.522 458.209 206.814 458.209 207.132ZM455.983 225.099L454.87 224.145L457.891 221.283C463.615 215.877 468.995 212.008 474.03 209.676C479.118 207.344 483.596 206.178 487.465 206.178C492.341 206.178 496.29 207.662 499.311 210.63C502.332 213.598 503.842 218.421 503.842 225.099V275.025C503.842 275.661 503.948 276.138 504.16 276.456C504.425 276.774 504.796 276.986 505.273 277.092L507.181 277.569C507.817 277.781 508.135 278.046 508.135 278.364C508.135 278.788 507.711 279 506.863 279H470.929C470.505 279 470.293 278.788 470.293 278.364C470.293 278.046 470.558 277.834 471.088 277.728L473.155 277.251C474.109 276.986 474.745 276.509 475.063 275.82C475.381 275.131 475.54 274.283 475.54 273.276V228.279C475.54 225.47 474.825 223.191 473.394 221.442C471.963 219.64 470.134 218.739 467.908 218.739C466 218.739 464.331 219.057 462.9 219.693C461.469 220.276 460.117 221.177 458.845 222.396L455.983 225.099ZM501.775 225.099L500.662 224.145L503.206 220.806C506.81 216.036 510.706 212.405 514.893 209.914C519.133 207.423 523.505 206.178 528.01 206.178C532.78 206.178 536.861 207.662 540.253 210.63C543.698 213.598 545.765 218.474 546.454 225.258L551.86 274.707C551.966 275.502 552.152 276.085 552.417 276.456C552.735 276.827 553.132 277.092 553.609 277.251L555.358 277.728C555.623 277.781 555.809 277.86 555.915 277.966C556.074 278.072 556.153 278.205 556.153 278.364C556.153 278.576 556.074 278.735 555.915 278.841C555.809 278.947 555.623 279 555.358 279H517.516C517.092 279 516.88 278.788 516.88 278.364C516.88 278.046 517.145 277.834 517.675 277.728L519.742 277.251C520.696 276.986 521.359 276.482 521.73 275.74C522.101 274.998 522.233 274.071 522.127 272.958L518.152 228.279C517.94 225.47 517.145 223.191 515.767 221.442C514.389 219.64 512.534 218.739 510.202 218.739C508.93 218.739 507.791 219.03 506.784 219.613C505.777 220.196 504.902 220.965 504.16 221.919L501.775 225.099ZM592.192 206.973V215.559V216.433V310.959C592.192 311.807 592.324 312.47 592.589 312.947C592.907 313.477 593.411 313.821 594.1 313.98L597.121 314.696C597.492 314.749 597.73 314.828 597.836 314.934C597.995 315.093 598.075 315.252 598.075 315.411C598.075 315.623 597.995 315.782 597.836 315.888C597.73 315.994 597.545 316.047 597.28 316.047H558.325C558.113 316.047 557.927 315.994 557.768 315.888C557.609 315.782 557.53 315.623 557.53 315.411C557.53 315.252 557.583 315.093 557.689 314.934C557.848 314.828 558.113 314.749 558.484 314.696L561.505 313.98C562.247 313.821 562.75 313.477 563.015 312.947C563.28 312.47 563.413 311.807 563.413 310.959V217.308C563.413 216.884 563.307 216.566 563.095 216.354C562.883 216.142 562.538 216.036 562.061 216.036H558.961C558.59 216.036 558.325 215.983 558.166 215.877C558.06 215.718 558.007 215.532 558.007 215.32C558.007 215.108 558.086 214.949 558.245 214.843C558.404 214.737 558.59 214.658 558.802 214.605L588.932 206.257C589.568 206.098 589.992 205.992 590.204 205.939C590.469 205.886 590.761 205.86 591.079 205.86C591.45 205.86 591.715 205.966 591.874 206.178C592.086 206.39 592.192 206.655 592.192 206.973ZM590.443 219.852L589.171 218.421C592.192 214.287 595.425 211.213 598.87 209.199C602.368 207.185 606.449 206.178 611.113 206.178C617.261 206.178 622.587 207.556 627.092 210.312C631.65 213.015 635.148 216.963 637.586 222.157C640.077 227.298 641.323 233.552 641.323 240.919C641.323 248.869 639.839 255.839 636.871 261.828C633.956 267.764 629.901 272.375 624.707 275.661C619.513 278.947 613.551 280.59 606.82 280.59C601.944 280.59 598.128 279.875 595.372 278.443C592.616 276.959 590.39 274.601 588.694 271.368L590.761 270.414C591.609 272.64 592.722 274.283 594.1 275.343C595.531 276.403 597.28 276.933 599.347 276.933C601.891 276.933 604.117 276.032 606.025 274.23C607.933 272.375 609.417 269.009 610.477 264.133C611.537 259.257 612.067 252.314 612.067 243.304C612.067 235.354 611.643 229.1 610.795 224.542C609.947 219.931 608.754 216.645 607.217 214.684C605.68 212.723 603.852 211.743 601.732 211.743C599.612 211.743 597.571 212.405 595.61 213.73C593.702 215.055 591.98 217.096 590.443 219.852ZM681.667 160.068V273.912C681.667 274.76 681.799 275.449 682.064 275.979C682.382 276.456 682.886 276.774 683.575 276.933L686.596 277.648C686.967 277.701 687.205 277.807 687.311 277.966C687.47 278.072 687.55 278.205 687.55 278.364C687.55 278.576 687.47 278.735 687.311 278.841C687.205 278.947 687.02 279 686.755 279H647.8C647.588 279 647.402 278.947 647.243 278.841C647.084 278.735 647.005 278.576 647.005 278.364C647.005 278.205 647.058 278.072 647.164 277.966C647.323 277.807 647.588 277.701 647.959 277.648L650.98 276.933C651.722 276.774 652.225 276.456 652.49 275.979C652.755 275.449 652.888 274.76 652.888 273.912V170.403C652.888 169.979 652.782 169.661 652.57 169.449C652.358 169.237 652.013 169.131 651.536 169.131H648.436C648.065 169.131 647.8 169.078 647.641 168.972C647.535 168.813 647.482 168.627 647.482 168.415C647.482 168.203 647.561 168.044 647.72 167.938C647.879 167.832 648.065 167.753 648.277 167.7L678.407 159.352C679.043 159.193 679.467 159.087 679.679 159.034C679.944 158.981 680.236 158.955 680.554 158.955C680.925 158.955 681.19 159.061 681.349 159.273C681.561 159.485 681.667 159.75 681.667 160.068ZM763.414 239.568C763.414 240.098 763.228 240.548 762.857 240.919C762.539 241.29 761.983 241.476 761.188 241.476H711.421V239.568H733.522C734.476 239.568 734.953 238.985 734.953 237.819C734.953 227.166 733.972 219.534 732.011 214.923C730.103 210.259 728.116 207.927 726.049 207.927C724.618 207.927 723.293 208.695 722.074 210.232C720.855 211.716 719.848 214.313 719.053 218.023C718.311 221.733 717.94 226.848 717.94 233.367C717.94 244.338 720.139 252.341 724.538 257.376C728.937 262.358 734.794 264.849 742.108 264.849C747.991 264.849 752.761 263.391 756.418 260.476C760.128 257.508 761.983 253.56 761.983 248.631C761.983 248.366 762.036 248.207 762.142 248.154C762.301 248.048 762.407 247.995 762.46 247.995C762.619 247.995 762.751 248.048 762.857 248.154C763.016 248.26 763.096 248.472 763.096 248.79C763.096 254.832 761.559 260.264 758.485 265.087C755.464 269.857 751.33 273.647 746.083 276.456C740.836 279.212 734.9 280.59 728.275 280.59C721.067 280.59 714.68 279.053 709.115 275.979C703.55 272.905 699.178 268.638 695.998 263.179C692.818 257.72 691.228 251.44 691.228 244.338C691.228 236.388 692.791 229.577 695.918 223.906C699.045 218.182 703.471 213.81 709.195 210.789C714.972 207.715 721.756 206.178 729.547 206.178C736.49 206.178 742.479 207.635 747.514 210.55C752.602 213.465 756.524 217.44 759.28 222.475C762.036 227.51 763.414 233.208 763.414 239.568Z" fill="white"/>
<path d="M44.205 155.58C48.475 155.58 51.835 154.495 54.285 152.325C56.805 150.085 58.065 147.18 58.065 143.61C58.065 141.02 57.435 138.675 56.175 136.575C54.985 134.475 52.92 132.515 49.98 130.695C47.04 128.875 42.98 127.09 37.8 125.34C29.05 122.4 22.19 119.215 17.22 115.785C12.32 112.285 8.855 108.4 6.825 104.13C4.795 99.86 3.78 95.03 3.78 89.64C3.78 80.26 6.93 73.085 13.23 68.115C19.53 63.145 27.93 60.66 38.43 60.66C42.77 60.66 46.34 61.08 49.14 61.92C51.94 62.69 54.075 63.495 55.545 64.335C57.085 65.105 58.065 65.49 58.485 65.49C59.255 65.49 60.655 65.105 62.685 64.335C64.785 63.495 66.85 62.69 68.88 61.92C70.91 61.08 72.24 60.66 72.87 60.66C73.22 60.66 73.535 60.73 73.815 60.87C74.095 61.01 74.27 61.36 74.34 61.92L79.38 93.84C79.52 94.4 79.52 94.89 79.38 95.31C79.31 95.66 79.17 95.905 78.96 96.045C78.75 96.115 78.54 96.115 78.33 96.045C78.19 95.905 78.015 95.73 77.805 95.52C73.115 87.19 68.74 80.645 64.68 75.885C60.69 71.125 56.665 67.765 52.605 65.805C48.615 63.845 44.345 62.865 39.795 62.865C35.175 62.865 31.64 64.055 29.19 66.435C26.74 68.745 25.515 71.825 25.515 75.675C25.515 78.475 26.18 80.995 27.51 83.235C28.84 85.475 31.185 87.575 34.545 89.535C37.905 91.425 42.7 93.245 48.93 94.995C56.7 97.235 62.86 100 67.41 103.29C72.03 106.51 75.32 110.22 77.28 114.42C79.31 118.62 80.325 123.24 80.325 128.28C80.325 134.37 78.82 139.655 75.81 144.135C72.8 148.545 68.775 151.975 63.735 154.425C58.695 156.875 53.06 158.1 46.83 158.1C42.98 158.1 39.62 157.575 36.75 156.525C33.88 155.475 31.605 154.425 29.925 153.375C28.245 152.325 27.195 151.8 26.775 151.8C26.285 151.8 25.13 152.29 23.31 153.27C21.49 154.18 19.6 155.09 17.64 156C15.68 156.98 14.35 157.47 13.65 157.47C13.3 157.47 12.915 157.26 12.495 156.84C12.075 156.49 11.795 155.86 11.655 154.95L7.56 128.28C7.49 127.44 7.49 126.845 7.56 126.495C7.7 126.075 7.91 125.795 8.19 125.655C8.33 125.515 8.47 125.515 8.61 125.655C8.82 125.795 9.03 126.04 9.24 126.39C15.54 136.82 21.525 144.31 27.195 148.86C32.865 153.34 38.535 155.58 44.205 155.58ZM138.023 61.71C147.263 61.71 155.453 63.775 162.593 67.905C169.733 72.035 175.333 77.775 179.393 85.125C183.453 92.405 185.483 100.805 185.483 110.325C185.483 119.705 183.383 128 179.183 135.21C175.053 142.35 169.313 147.95 161.963 152.01C154.613 156.07 146.213 158.1 136.763 158.1C127.523 158.1 119.333 156.105 112.193 152.115C105.123 148.055 99.5575 142.455 95.4975 135.315C91.5075 128.105 89.5125 119.775 89.5125 110.325C89.5125 100.875 91.5775 92.51 95.7075 85.23C99.8375 77.95 105.543 72.21 112.823 68.01C120.173 63.81 128.573 61.71 138.023 61.71ZM143.167 156.315C147.508 155.895 151.043 153.795 153.773 150.015C156.573 146.235 158.428 140.81 159.338 133.74C160.318 126.67 160.213 118.025 159.023 107.805C157.833 97.445 155.978 88.94 153.458 82.29C150.938 75.57 147.858 70.67 144.218 67.59C140.578 64.44 136.483 63.11 131.933 63.6C127.453 64.02 123.848 66.155 121.118 70.005C118.388 73.855 116.603 79.315 115.763 86.385C114.923 93.455 115.098 102.03 116.288 112.11C117.478 122.26 119.333 130.695 121.853 137.415C124.443 144.065 127.558 149 131.198 152.22C134.838 155.37 138.828 156.735 143.167 156.315ZM226.657 103.605C226.657 94.365 227.987 86.665 230.647 80.505C233.307 74.275 236.702 69.585 240.832 66.435C245.032 63.285 249.407 61.71 253.957 61.71C259.137 61.71 263.127 63.355 265.927 66.645C268.727 69.865 270.127 74.485 270.127 80.505C270.127 85.755 268.902 89.64 266.452 92.16C264.002 94.68 260.957 95.94 257.317 95.94C253.957 95.94 251.437 94.995 249.757 93.105C248.077 91.215 247.167 88.415 247.027 84.705L246.817 81.345C246.817 79.175 246.397 77.53 245.557 76.41C244.717 75.29 243.247 74.73 241.147 74.73C238.977 74.73 236.877 75.815 234.847 77.985C232.817 80.155 231.137 83.445 229.807 87.855C228.547 92.195 227.917 97.655 227.917 104.235L226.657 103.605ZM227.917 63.915V98.775V149.595C227.917 150.365 228.127 151.065 228.547 151.695C229.037 152.325 229.702 152.71 230.542 152.85L240.937 154.53C241.357 154.6 241.602 154.705 241.672 154.845C241.812 154.985 241.882 155.16 241.882 155.37C241.882 155.51 241.777 155.65 241.567 155.79C241.427 155.93 241.217 156 240.937 156H194.317C194.037 156 193.792 155.93 193.582 155.79C193.372 155.58 193.267 155.405 193.267 155.265C193.267 155.125 193.372 154.985 193.582 154.845C193.862 154.635 194.212 154.495 194.632 154.425L200.302 153.48C201.212 153.34 201.842 153.025 202.192 152.535C202.612 151.975 202.822 151.345 202.822 150.645V73.26C202.822 72.77 202.717 72.385 202.507 72.105C202.367 71.755 202.017 71.58 201.457 71.58H194.317C194.177 71.58 194.002 71.51 193.792 71.37C193.652 71.23 193.582 71.09 193.582 70.95C193.582 70.74 193.652 70.565 193.792 70.425C194.002 70.285 194.247 70.18 194.527 70.11L224.767 62.865C225.257 62.725 225.642 62.655 225.922 62.655C226.202 62.585 226.482 62.55 226.762 62.55C227.182 62.55 227.462 62.69 227.602 62.97C227.812 63.25 227.917 63.565 227.917 63.915ZM324.233 61.71C333.473 61.71 341.663 63.775 348.803 67.905C355.943 72.035 361.543 77.775 365.603 85.125C369.663 92.405 371.693 100.805 371.693 110.325C371.693 119.705 369.593 128 365.393 135.21C361.263 142.35 355.523 147.95 348.173 152.01C340.823 156.07 332.423 158.1 322.973 158.1C313.733 158.1 305.543 156.105 298.403 152.115C291.333 148.055 285.768 142.455 281.708 135.315C277.718 128.105 275.723 119.775 275.723 110.325C275.723 100.875 277.788 92.51 281.918 85.23C286.048 77.95 291.753 72.21 299.033 68.01C306.383 63.81 314.783 61.71 324.233 61.71ZM329.378 156.315C333.718 155.895 337.253 153.795 339.983 150.015C342.783 146.235 344.638 140.81 345.548 133.74C346.528 126.67 346.423 118.025 345.233 107.805C344.043 97.445 342.188 88.94 339.668 82.29C337.148 75.57 334.068 70.67 330.428 67.59C326.788 64.44 322.693 63.11 318.143 63.6C313.663 64.02 310.058 66.155 307.328 70.005C304.598 73.855 302.813 79.315 301.973 86.385C301.133 93.455 301.308 102.03 302.498 112.11C303.688 122.26 305.543 130.695 308.063 137.415C310.653 144.065 313.768 149 317.408 152.22C321.048 155.37 325.038 156.735 329.378 156.315ZM410.663 1.33499V148.545L388.403 156.84C388.123 156.91 387.808 156.98 387.458 157.05C387.178 157.19 386.898 157.26 386.618 157.26C386.338 157.26 386.093 157.155 385.883 156.945C385.673 156.805 385.568 156.595 385.568 156.315V11.835C385.568 11.415 385.463 11.1 385.253 10.89C385.043 10.61 384.693 10.47 384.203 10.47H377.378C377.028 10.47 376.783 10.4 376.643 10.26C376.503 10.12 376.433 9.94499 376.433 9.735C376.433 9.45499 376.503 9.27999 376.643 9.20999C376.853 9.06999 377.063 8.96499 377.273 8.895L407.408 0.494993C408.038 0.354995 408.458 0.284996 408.668 0.284996C408.948 0.214993 409.228 0.179991 409.508 0.179991C409.858 0.179991 410.138 0.284992 410.348 0.494993C410.558 0.704995 410.663 0.984995 410.663 1.33499ZM408.878 79.77L407.723 78.51C412.763 72.42 417.663 68.115 422.423 65.595C427.183 63.005 432.503 61.71 438.383 61.71C445.943 61.71 452.628 63.565 458.438 67.275C464.318 70.915 468.903 76.13 472.193 82.92C475.483 89.71 477.128 97.83 477.128 107.28C477.128 117.43 475.273 126.355 471.563 134.055C467.853 141.685 462.708 147.6 456.128 151.8C449.548 156 441.988 158.1 433.448 158.1C426.518 158.1 420.848 156.77 416.438 154.11C412.028 151.45 408.458 147.74 405.728 142.98L407.618 142.035C409.578 146.025 412.203 149.14 415.493 151.38C418.783 153.62 422.703 154.74 427.253 154.74C431.803 154.74 435.898 153.27 439.538 150.33C443.248 147.39 446.153 142.63 448.253 136.05C450.423 129.4 451.508 120.58 451.508 109.59C451.508 99.65 450.598 91.53 448.778 85.23C446.958 78.93 444.438 74.275 441.218 71.265C437.998 68.255 434.288 66.75 430.088 66.75C426.658 66.75 423.123 67.8 419.483 69.9C415.843 71.93 412.308 75.22 408.878 79.77ZM540.629 146.235V145.29L539.474 146.34V78.72C539.474 73.68 538.424 69.83 536.324 67.17C534.224 64.51 531.214 63.18 527.294 63.18C522.954 63.18 519.699 64.265 517.529 66.435C515.359 68.605 514.274 71.09 514.274 73.89V82.395C514.274 85.895 513.049 88.835 510.599 91.215C508.149 93.595 504.964 94.785 501.044 94.785C498.314 94.785 496.039 93.98 494.219 92.37C492.469 90.69 491.594 88.17 491.594 84.81C491.594 81.1 493.064 77.495 496.004 73.995C498.944 70.425 503.284 67.485 509.024 65.175C514.834 62.865 521.939 61.71 530.339 61.71C541.819 61.71 550.394 64.125 556.064 68.955C561.804 73.715 564.674 80.505 564.674 89.325V143.82C564.674 146.27 565.094 148.055 565.934 149.175C566.774 150.225 567.824 150.75 569.084 150.75C570.344 150.75 571.464 150.365 572.444 149.595C573.424 148.825 574.054 147.53 574.334 145.71C574.334 145.5 574.369 145.36 574.439 145.29C574.579 145.15 574.719 145.08 574.859 145.08C574.999 145.08 575.104 145.15 575.174 145.29C575.314 145.36 575.384 145.5 575.384 145.71C575.384 147.04 574.754 148.65 573.494 150.54C572.304 152.43 570.344 154.145 567.614 155.685C564.884 157.155 561.244 157.89 556.694 157.89C551.094 157.89 546.999 156.805 544.409 154.635C541.889 152.465 540.629 149.665 540.629 146.235ZM486.344 135.63C486.344 128 489.494 121.875 495.794 117.255C502.094 112.565 512.104 110.22 525.824 110.22C530.094 110.22 533.594 110.675 536.324 111.585C539.124 112.425 541.714 113.475 544.094 114.735L543.254 115.47C540.874 114.35 538.459 113.475 536.009 112.845C533.559 112.215 530.794 111.9 527.714 111.9C522.464 111.9 518.404 113.65 515.534 117.15C512.734 120.65 511.334 125.585 511.334 131.955C511.334 138.115 512.699 142.805 515.429 146.025C518.159 149.175 521.694 150.75 526.034 150.75C528.974 150.75 531.844 150.085 534.644 148.755C537.514 147.355 539.894 145.36 541.784 142.77L542.939 143.4C539.859 148.09 535.624 151.695 530.234 154.215C524.914 156.665 519.174 157.89 513.014 157.89C505.104 157.89 498.664 155.825 493.694 151.695C488.794 147.495 486.344 142.14 486.344 135.63ZM615.615 63.18V150.225C615.615 151.135 615.79 151.87 616.14 152.43C616.56 152.99 617.225 153.34 618.135 153.48L623.91 154.53C624.61 154.67 624.96 154.95 624.96 155.37C624.96 155.79 624.68 156 624.12 156H581.805C581.595 156 581.385 155.93 581.175 155.79C581.035 155.65 580.965 155.51 580.965 155.37C580.965 155.16 581.035 155.02 581.175 154.95C581.315 154.81 581.595 154.705 582.015 154.635L588 153.48C588.91 153.34 589.54 152.99 589.89 152.43C590.31 151.87 590.52 151.17 590.52 150.33V73.575C590.52 73.155 590.415 72.84 590.205 72.63C589.995 72.35 589.645 72.21 589.155 72.21H582.33C581.98 72.21 581.735 72.14 581.595 72C581.455 71.86 581.385 71.685 581.385 71.475C581.385 71.265 581.455 71.125 581.595 71.055C581.805 70.915 582.015 70.81 582.225 70.74L612.36 62.34C612.99 62.13 613.41 62.025 613.62 62.025C613.9 61.955 614.18 61.92 614.46 61.92C614.81 61.92 615.09 62.06 615.3 62.34C615.51 62.55 615.615 62.83 615.615 63.18ZM613.515 83.865L612.465 82.815L616.245 79.455C623.175 73.225 629.16 68.71 634.2 65.91C639.31 63.11 644.07 61.71 648.48 61.71C654.92 61.71 659.925 63.74 663.495 67.8C667.065 71.79 669.375 78.055 670.425 86.595L678.3 149.595C678.44 150.715 678.72 151.625 679.14 152.325C679.63 153.025 680.4 153.48 681.45 153.69L686.595 154.635C686.945 154.635 687.19 154.705 687.33 154.845C687.47 154.985 687.54 155.16 687.54 155.37C687.54 155.51 687.47 155.65 687.33 155.79C687.19 155.93 686.98 156 686.7 156H643.65C643.02 156 642.705 155.79 642.705 155.37C642.705 154.95 643.09 154.67 643.86 154.53L649.845 153.48C650.965 153.34 651.735 152.92 652.155 152.22C652.645 151.52 652.82 150.645 652.68 149.595L645.75 89.115C645.05 83.445 643.72 79.315 641.76 76.725C639.8 74.135 636.86 72.84 632.94 72.84C630.35 72.84 627.795 73.505 625.275 74.835C622.755 76.095 620.06 78.02 617.19 80.61L613.515 83.865Z" fill="white"/>
</svg>
